<?xml version="1.0" encoding="utf-8"?>
<!-- Generator: Adobe Illustrator 19.1.1, SVG Export Plug-In . SVG Version: 6.00 Build 0)  -->
<svg version="1.1" id="Layer_1" xmlns="http://www.w3.org/2000/svg" xmlns:xlink="http://www.w3.org/1999/xlink" x="0px" y="0px"
	 viewBox="0 0 1200 1200" enable-background="new 0 0 1200 1200" xml:space="preserve">
<g>
	<g>
		<path fill="#634156" d="M861.785,1085.088C1032.512,1001.005,1150,825.301,1150,622.131c0-284.86-230.925-515.785-515.785-515.785
			S118.431,337.271,118.431,622.131c0,203.171,117.488,378.875,288.215,462.957H861.785z"/>
		<path fill="#4CEAFC" d="M476.354,372.561c-1.278,0-2.49-0.615-3.251-1.694l-24.059-34.29c-20.095,3.516-38.752,2.497-55.45-3.006
			c-1.222-0.402-1.882-1.714-1.481-2.933c0.402-1.219,1.711-1.889,2.933-1.481c16.076,5.301,34.108,6.236,53.6,2.773
			c1.505-0.283,3.062,0.367,3.946,1.613l23.36,33.288l5.748-38.047c0.237-1.554,1.309-2.786,2.793-3.223
			c0.73-0.213,71.865-29.733,61.051-112.803c-0.164-1.275,0.733-2.441,2.004-2.605c1.24-0.182,2.437,0.733,2.605,2.004
			c10.133,77.843-50.391,113.373-63.921,117.734l-5.933,39.28c-0.244,1.62-1.432,2.909-3.024,3.282
			C476.968,372.526,476.658,372.561,476.354,372.561z"/>
		<path fill="#FC523A" d="M465.555,358.499l5.996-39.696c0.096-0.635,0.534-1.154,1.15-1.336
			c8.939-2.632,75.146-25.271,62.702-115.337c-13.339-96.542-155.538-95.35-200.646-36.948
			c-44.966,58.217-6.806,178.019,101.848,158.708c0.628-0.112,1.272,0.144,1.639,0.667l24.315,34.647
			C463.418,360.428,465.332,359.978,465.555,358.499z"/>
		<path fill="#FFFFFF" d="M438.391,275.203c1.644,0.807,3.61,0.205,4.505-1.392c7.665-13.693,39.467-73.677,17.045-88.481
			c-20.292-13.397-33.123,13.53-37.44,24.825c-0.83,2.172-3.524,2.904-5.337,1.448c-7.991-6.418-27.196-19.06-40.734-5.335
			C352.121,230.911,422.939,267.621,438.391,275.203z"/>
		<path fill="#4CEAFC" d="M871.608,463.638c-3.125,0-6.167-1.149-8.517-3.251c-2.703-2.42-4.253-5.887-4.253-9.512V365.8
			c0-6.523,4.892-11.977,11.38-12.689c1.264-0.115,2.42,0.782,2.563,2.06c0.14,1.275-0.782,2.423-2.06,2.563
			c-4.124,0.45-7.232,3.918-7.232,8.066v85.075c0,2.305,0.985,4.508,2.703,6.048c1.718,1.533,4.026,2.287,6.306,2.015l218.56-24.331
			c1.25-0.119,2.427,0.779,2.57,2.053c0.14,1.278-0.779,2.427-2.053,2.57l-218.56,24.331
			C872.543,463.61,872.076,463.638,871.608,463.638z"/>
		<path fill="#FFFFFF" d="M1113.209,316.499l-231.231,25.256c-5.295,0.578-9.306,5.051-9.306,10.378v85.074
			c0,6.223,5.41,11.064,11.594,10.375l239.825-26.698c5.696-0.634,9.815-5.741,9.23-11.442l-8.595-83.632
			C1124.135,320.049,1118.967,315.871,1113.209,316.499z"/>
		<path fill="#D3B9B9" d="M968.604,427.396c-1.907,0-3.492-1.508-3.569-3.429l-3.143-77.473c-0.08-1.976,1.453-3.638,3.429-3.719
			c1.917-0.108,3.635,1.456,3.715,3.425l3.143,77.473c0.08,1.976-1.453,3.638-3.429,3.719
			C968.701,427.396,968.652,427.396,968.604,427.396z"/>
		<path opacity="0.25" fill="#D3B9B9" d="M884.267,447.582l239.826-26.698c5.696-0.634,9.815-5.741,9.229-11.442l-2.797-27.221
			c-1.802-4.018-5.999-6.632-10.617-6.128l-231.231,25.256c-5.295,0.578-9.306,5.051-9.306,10.378v35.186
			C880.881,447.497,882.534,447.775,884.267,447.582z"/>
		<g>
			<circle fill="#FFFFFF" cx="920.635" cy="376.031" r="14.968"/>
			<path fill="#634156" d="M922.794,404.647c-14.131,0-25.627-11.495-25.627-25.623c0-14.131,11.495-25.626,25.627-25.626
				s25.627,11.495,25.627,25.626C948.421,393.152,936.926,404.647,922.794,404.647z M922.794,364.124c-8.216,0-14.9,6.683-14.9,14.9
				c0,8.213,6.683,14.896,14.9,14.896s14.9-6.683,14.9-14.896C937.694,370.808,931.011,364.124,922.794,364.124z"/>
			<path fill="#634156" d="M896.309,422.626c-1.145,0-2.298-0.363-3.272-1.117c-2.346-1.809-2.779-5.178-0.971-7.521l16.097-20.867
				c1.809-2.347,5.182-2.783,7.521-0.971c2.347,1.809,2.78,5.178,0.971,7.521l-16.097,20.867
				C899.504,421.907,897.915,422.626,896.309,422.626z"/>
		</g>
		<path fill="#4CEAFC" d="M202.804,670.7c-2.566,0.004-4.836-1.498-5.838-3.893l-14.131-33.787c-0.265-0.636-0.88-1.041-1.568-1.041
			h-54.49c-1.285,0-2.326-1.041-2.326-2.326s1.041-2.326,2.326-2.326h54.49c2.57,0,4.868,1.533,5.856,3.9l14.131,33.783
			c0.426,1.02,1.348,1.051,1.655,1.041c0.279-0.017,1.219-0.147,1.54-1.208l10.022-33.169c0.768-2.546,3.066-4.354,5.716-4.504
			l60.045-3.394c4.176-0.234,7.961-2.126,10.657-5.318c2.699-3.195,3.928-7.242,3.467-11.394l-11.244-100.586
			c-0.143-1.275,0.775-2.427,2.05-2.566c1.254-0.129,2.423,0.775,2.566,2.05l11.244,100.586c0.608,5.437-1.002,10.73-4.532,14.91
			c-3.53,4.18-8.482,6.652-13.943,6.963l-60.049,3.394c-0.709,0.038-1.323,0.524-1.529,1.205l-10.022,33.169
			c-0.786,2.598-3.045,4.365-5.751,4.504C203.031,670.7,202.92,670.7,202.804,670.7z"/>
		<path fill="#FFFFFF" d="M205.966,621.619l-10.021,33.173c-1.091,3.611-6.106,3.869-7.561,0.389l-14.132-33.785
			c-0.626-1.496-2.089-2.47-3.711-2.47h-54.493c-8.928,0-16.405-6.761-17.301-15.644l-9.277-92.003
			c-0.977-9.692,6.197-18.296,15.907-19.077l150.64-12.108c9.362-0.753,17.63,6.066,18.674,15.401l11.244,100.584
			c1.108,9.916-6.337,18.729-16.299,19.292l-60.048,3.396C207.903,618.861,206.455,620.001,205.966,621.619z"/>
		<g>
			<path fill="#FFFFFF" d="M604.926,225.268c-24.038,0-43.592-19.554-43.592-43.592s19.554-43.592,43.592-43.592
				c24.034,0,43.588,19.554,43.588,43.592S628.961,225.268,604.926,225.268z M604.926,145.236
				c-20.092,0-36.441,16.349-36.441,36.441s16.349,36.441,36.441,36.441c20.092,0,36.437-16.349,36.437-36.441
				S625.018,145.236,604.926,145.236z"/>
			<path fill="#50BAC9" d="M706.779,251.265c-12.487,0-22.644-10.161-22.644-22.648s10.158-22.644,22.644-22.644
				s22.645,10.158,22.645,22.644S719.266,251.265,706.779,251.265z M706.779,213.124c-8.544,0-15.493,6.949-15.493,15.493
				s6.949,15.497,15.493,15.497s15.493-6.952,15.493-15.497S715.324,213.124,706.779,213.124z"/>
			<path fill="#50BAC9" d="M346.86,391.49c-15.933,0-28.898-12.965-28.898-28.898s12.965-28.895,28.898-28.895
				s28.895,12.962,28.895,28.895S362.793,391.49,346.86,391.49z M346.86,340.848c-11.991,0-21.747,9.753-21.747,21.744
				s9.756,21.747,21.747,21.747c11.991,0,21.744-9.756,21.744-21.747S358.85,340.848,346.86,340.848z"/>
			<path fill="#FFFFFF" d="M325.126,484.46c-9.058,0-16.426-7.368-16.426-16.426c0-9.058,7.368-16.426,16.426-16.426
				s16.426,7.368,16.426,16.426C341.552,477.092,334.184,484.46,325.126,484.46z M325.126,458.76c-5.116,0-9.274,4.159-9.274,9.274
				c0,5.116,4.159,9.274,9.274,9.274c5.116,0,9.274-4.159,9.274-9.274C334.401,462.919,330.242,458.76,325.126,458.76z"/>
			<path fill="#FFFFFF" d="M292.069,883.289c-27.09,0-49.126-22.037-49.126-49.126c0-27.09,22.037-49.127,49.126-49.127
				c27.09,0,49.126,22.037,49.126,49.127C341.196,861.252,319.159,883.289,292.069,883.289z M292.069,792.187
				c-23.144,0-41.975,18.831-41.975,41.975c0,23.144,18.831,41.975,41.975,41.975s41.975-18.831,41.975-41.975
				C334.045,811.019,315.213,792.187,292.069,792.187z"/>
			<path fill="#FFFFFF" d="M210.595,780.958c-10.053,0-18.231-8.181-18.231-18.234s8.178-18.231,18.231-18.231
				c10.053,0,18.234,8.178,18.234,18.231S220.648,780.958,210.595,780.958z M210.595,751.644c-6.111,0-11.08,4.969-11.08,11.08
				c0,6.111,4.969,11.083,11.08,11.083c6.111,0,11.083-4.972,11.083-11.083C221.678,756.613,216.705,751.644,210.595,751.644z"/>
			<path fill="#50BAC9" d="M436.659,964.53c-16.866,0-30.585-13.723-30.585-30.588c0-16.866,13.719-30.585,30.585-30.585
				c16.866,0,30.588,13.719,30.588,30.585C467.247,950.807,453.524,964.53,436.659,964.53z M436.659,910.508
				c-12.92,0-23.434,10.514-23.434,23.434c0,12.923,10.514,23.437,23.434,23.437c12.923,0,23.437-10.514,23.437-23.437
				C460.096,921.022,449.582,910.508,436.659,910.508z"/>
			<path fill="#FFFFFF" d="M786.882,952.043c-9.98,0-18.098-8.122-18.098-18.102c0-9.98,8.118-18.098,18.098-18.098
				c9.98,0,18.102,8.118,18.102,18.098C804.984,943.921,796.862,952.043,786.882,952.043z M786.882,922.995
				c-6.037,0-10.947,4.909-10.947,10.947c0,6.037,4.909,10.95,10.947,10.95c6.037,0,10.95-4.913,10.95-10.95
				C797.832,927.904,792.919,922.995,786.882,922.995z"/>
			<path fill="#FFFFFF" d="M991.513,513.508c-9.98,0-18.098-8.119-18.098-18.098c0-9.98,8.119-18.102,18.098-18.102
				c9.98,0,18.102,8.122,18.102,18.102C1009.615,505.39,1001.493,513.508,991.513,513.508z M991.513,484.46
				c-6.037,0-10.947,4.913-10.947,10.95c0,6.037,4.909,10.947,10.947,10.947c6.037,0,10.95-4.91,10.95-10.947
				C1002.464,489.373,997.551,484.46,991.513,484.46z"/>
			<path fill="#50BAC9" d="M1045.794,711.743c-30.232,0-54.825-24.596-54.825-54.829s24.593-54.825,54.825-54.825
				c30.232,0,54.829,24.593,54.829,54.825S1076.026,711.743,1045.794,711.743z M1045.794,609.24
				c-26.286,0-47.674,21.387-47.674,47.674c0,26.29,21.387,47.677,47.674,47.677c26.29,0,47.677-21.387,47.677-47.677
				C1093.471,630.628,1072.084,609.24,1045.794,609.24z"/>
			<g>
				<g>
					<path fill="#FFFFFF" d="M265.332,415.66c-0.915,0-1.83-0.349-2.528-1.048l-1.425-1.425c-0.003-0.003-0.007-0.007-0.01-0.01
						l-3.132-3.132c-1.397-1.397-1.397-3.659,0-5.056s3.659-1.397,5.056,0l3.132,3.132c0.003,0.003,0.01,0.007,0.017,0.017
						l0.028,0.028c0.471,0.471,0.786,1.044,0.939,1.648l0.45-0.258c1.397,1.397,1.397,3.659,0,5.056
						C267.162,415.311,266.247,415.66,265.332,415.66z"/>
					<path fill="#FFFFFF" d="M232.272,382.6c-0.915,0-1.83-0.349-2.528-1.048l-3.181-3.178c-0.471-0.475-0.786-1.048-0.936-1.652
						l-0.454,0.258c-1.397-1.397-1.397-3.659,0-5.056s3.659-1.397,5.056,0l4.571,4.571c1.397,1.397,1.397,3.659,0,5.056
						C234.102,382.25,233.187,382.6,232.272,382.6z"/>
				</g>
				<g>
					<path fill="#FFFFFF" d="M273.126,396.846h-6.46c-1.976,0-3.576-1.599-3.576-3.576c0-1.976,1.599-3.576,3.576-3.576h4.494
						c0.667,0,1.292,0.182,1.826,0.503l0.14-0.503c1.976,0,3.576,1.599,3.576,3.576
						C276.702,395.247,275.103,396.846,273.126,396.846z"/>
					<path fill="#FFFFFF" d="M226.371,396.846h-6.463c-1.976,0-3.576-1.599-3.576-3.576c0-1.976,1.599-3.576,3.576-3.576h6.463
						c1.976,0,3.576,1.599,3.576,3.576C229.946,395.247,228.347,396.846,226.371,396.846z"/>
				</g>
				<g>
					<path fill="#FFFFFF" d="M260.765,382.6c-0.915,0-1.83-0.349-2.528-1.048c-1.397-1.393-1.397-3.659,0-5.056l3.146-3.15
						c0.003,0,0.003,0,0.003-0.003l0.024-0.024c0.108-0.105,0.223-0.203,0.339-0.29c0.353-0.402,0.719-0.768,1.055-1.103
						c1.397-1.397,3.659-1.397,5.056,0c1.397,1.393,1.397,3.659,0,5.056l-1.372,1.376c-0.007,0.007-0.014,0.01-0.017,0.017l0,0l0,0
						l0,0l-3.178,3.178C262.595,382.25,261.68,382.6,260.765,382.6z"/>
					<path fill="#FFFFFF" d="M227.701,415.66c-0.915,0-1.83-0.349-2.528-1.048c-1.397-1.397-1.397-3.663,0-5.056
						c0.328-0.328,0.688-0.688,1.079-1.034c0.094-0.122,0.199-0.244,0.314-0.356l0.049,0.049l0,0l-0.049-0.052l3.178-3.174
						c1.397-1.397,3.659-1.397,5.056,0c1.397,1.397,1.397,3.663,0,5.056l-3.178,3.178l0,0l0,0c-0.007,0.004-0.01,0.01-0.017,0.017
						l-1.376,1.372C229.531,415.311,228.616,415.66,227.701,415.66z"/>
				</g>
				<g>
					<path fill="#FFFFFF" d="M246.518,376.698c-1.976,0-3.576-1.599-3.576-3.576v-6.463c0-1.976,1.599-3.576,3.576-3.576
						c1.976,0,3.576,1.599,3.576,3.576v6.463C250.094,375.099,248.495,376.698,246.518,376.698z"/>
					<path fill="#FFFFFF" d="M246.518,423.454c-1.976,0-3.576-1.599-3.576-3.576v-6.46c0-1.976,1.599-3.576,3.576-3.576
						c1.976,0,3.576,1.599,3.576,3.576v4.494c0,0.667-0.182,1.292-0.503,1.826l0.503,0.14
						C250.094,421.855,248.495,423.454,246.518,423.454z"/>
				</g>
			</g>
			<g>
				<g>
					<path fill="#FFFFFF" d="M356.438,999.913c-0.915,0-1.83-0.349-2.528-1.048l-6.324-6.324c-1.397-1.397-1.397-3.659,0-5.056
						s3.659-1.397,5.056,0l6.324,6.324c1.397,1.397,1.397,3.659,0,5.056C358.267,999.563,357.352,999.913,356.438,999.913z"/>
					<path fill="#FFFFFF" d="M325.126,968.601c-0.915,0-1.83-0.349-2.528-1.048l-6.32-6.32c-1.397-1.397-1.397-3.659,0-5.056
						s3.659-1.397,5.056,0l6.32,6.32c1.397,1.397,1.397,3.659,0,5.056C326.956,968.252,326.041,968.601,325.126,968.601z"/>
				</g>
				<g>
					<path fill="#FFFFFF" d="M364.231,981.095h-8.943c-1.976,0-3.576-1.599-3.576-3.576s1.599-3.576,3.576-3.576h8.943
						c1.976,0,3.576,1.599,3.576,3.576S366.208,981.095,364.231,981.095z"/>
					<path fill="#FFFFFF" d="M319.952,981.095h-8.939c-1.976,0-3.576-1.599-3.576-3.576s1.599-3.576,3.576-3.576h8.939
						c1.976,0,3.576,1.599,3.576,3.576S321.928,981.095,319.952,981.095z"/>
				</g>
				<g>
					<path fill="#FFFFFF" d="M350.114,968.601c-0.915,0-1.83-0.349-2.528-1.048c-1.397-1.397-1.397-3.659,0-5.056l6.324-6.32
						c1.397-1.397,3.659-1.397,5.056,0s1.397,3.663,0,5.056l-6.324,6.32C351.944,968.252,351.029,968.601,350.114,968.601z"/>
					<path fill="#FFFFFF" d="M318.806,999.913c-0.915,0-1.83-0.349-2.528-1.048c-1.397-1.393-1.397-3.659,0-5.056l6.32-6.324
						c1.397-1.397,3.659-1.397,5.056,0s1.397,3.659,0,5.056l-6.32,6.324C320.636,999.563,319.721,999.913,318.806,999.913z"/>
				</g>
				<g>
					<path fill="#FFFFFF" d="M337.62,963.426c-1.976,0-3.576-1.599-3.576-3.576v-8.939c0-1.976,1.599-3.576,3.576-3.576
						s3.576,1.599,3.576,3.576v8.939C341.196,961.827,339.597,963.426,337.62,963.426z"/>
					<path fill="#FFFFFF" d="M337.62,1007.706c-1.976,0-3.576-1.599-3.576-3.576v-8.943c0-1.976,1.599-3.576,3.576-3.576
						s3.576,1.599,3.576,3.576v8.943C341.196,1006.107,339.597,1007.706,337.62,1007.706z"/>
				</g>
			</g>
			<g>
				<g>
					<path fill="#FFFFFF" d="M316.624,737.69c-0.915,0-1.83-0.349-2.528-1.048l-10.367-10.364c-1.397-1.397-1.397-3.659,0-5.056
						s3.659-1.397,5.056,0l10.367,10.364c1.397,1.393,1.397,3.659,0,5.056C318.454,737.341,317.539,737.69,316.624,737.69z"/>
					<path fill="#FFFFFF" d="M277.879,698.949c-0.915,0-1.83-0.349-2.528-1.048l-10.364-10.364c-1.397-1.397-1.397-3.659,0-5.056
						s3.659-1.397,5.056,0l10.364,10.364c1.397,1.397,1.397,3.659,0,5.056C279.708,698.599,278.793,698.949,277.879,698.949z"/>
				</g>
				<g>
					<path fill="#FFFFFF" d="M326.792,713.139h-14.659c-1.976,0-3.576-1.599-3.576-3.576c0-1.976,1.599-3.576,3.576-3.576h14.659
						c1.976,0,3.576,1.599,3.576,3.576C330.368,711.54,328.768,713.139,326.792,713.139z"/>
					<path fill="#FFFFFF" d="M272.002,713.139h-14.655c-1.976,0-3.576-1.599-3.576-3.576c0-1.976,1.599-3.576,3.576-3.576h14.655
						c1.976,0,3.576,1.599,3.576,3.576C275.577,711.54,273.978,713.139,272.002,713.139z"/>
				</g>
				<g>
					<path fill="#FFFFFF" d="M306.257,698.949c-0.915,0-1.83-0.349-2.528-1.048c-1.397-1.397-1.397-3.663,0-5.056l10.367-10.364
						c1.397-1.397,3.659-1.397,5.056,0s1.397,3.659,0,5.056l-10.367,10.364C308.086,698.599,307.171,698.949,306.257,698.949z"/>
					<path fill="#FFFFFF" d="M267.515,737.69c-0.915,0-1.83-0.349-2.528-1.048c-1.397-1.397-1.397-3.663,0-5.056l10.364-10.364
						c1.397-1.397,3.659-1.397,5.056,0c1.397,1.393,1.397,3.659,0,5.056l-10.364,10.364
						C269.345,737.341,268.43,737.69,267.515,737.69z"/>
				</g>
				<g>
					<path fill="#FFFFFF" d="M292.069,693.072c-1.976,0-3.576-1.599-3.576-3.576v-14.659c0-1.976,1.599-3.576,3.576-3.576
						s3.576,1.599,3.576,3.576v14.659C295.645,691.473,294.046,693.072,292.069,693.072z"/>
					<path fill="#FFFFFF" d="M292.069,747.862c-1.976,0-3.576-1.599-3.576-3.576v-14.659c0-1.976,1.599-3.576,3.576-3.576
						s3.576,1.599,3.576,3.576v14.659C295.645,746.263,294.046,747.862,292.069,747.862z"/>
				</g>
			</g>
			<g>
				<g>
					<path fill="#FFFFFF" d="M944.831,635.474c-0.915,0-1.83-0.349-2.528-1.048l-10.427-10.43c-1.397-1.397-1.397-3.659,0-5.056
						c1.397-1.397,3.659-1.397,5.056,0l10.427,10.43c1.397,1.397,1.397,3.659,0,5.056
						C946.661,635.125,945.746,635.474,944.831,635.474z"/>
					<path fill="#FFFFFF" d="M899.224,589.864c-0.915,0-1.83-0.349-2.528-1.048l-10.43-10.427c-1.397-1.397-1.397-3.659,0-5.056
						s3.659-1.397,5.056,0l10.43,10.427c1.397,1.397,1.397,3.659,0,5.056C901.054,589.515,900.139,589.864,899.224,589.864z"/>
				</g>
				<g>
					<path fill="#FFFFFF" d="M956.438,607.456h-14.749c-1.976,0-3.576-1.599-3.576-3.576c0-1.976,1.599-3.576,3.576-3.576h14.749
						c1.976,0,3.576,1.599,3.576,3.576C960.014,605.857,958.414,607.456,956.438,607.456z"/>
					<path fill="#FFFFFF" d="M891.937,607.456h-14.746c-1.976,0-3.576-1.599-3.576-3.576c0-1.976,1.599-3.576,3.576-3.576h14.746
						c1.976,0,3.576,1.599,3.576,3.576C895.513,605.857,893.913,607.456,891.937,607.456z"/>
				</g>
				<g>
					<path fill="#FFFFFF" d="M934.405,589.864c-0.915,0-1.83-0.349-2.528-1.048c-1.397-1.397-1.397-3.659,0-5.056l10.427-10.427
						c1.397-1.397,3.659-1.397,5.056,0s1.397,3.659,0,5.056l-10.427,10.427C936.234,589.515,935.32,589.864,934.405,589.864z"/>
					<path fill="#FFFFFF" d="M888.794,635.474c-0.915,0-1.83-0.349-2.528-1.048c-1.397-1.397-1.397-3.659,0-5.056l10.43-10.43
						c1.397-1.397,3.659-1.397,5.056,0c1.397,1.397,1.397,3.659,0,5.056l-10.43,10.43
						C890.624,635.125,889.709,635.474,888.794,635.474z"/>
				</g>
				<g>
					<path fill="#FFFFFF" d="M916.813,582.58c-1.976,0-3.576-1.599-3.576-3.576v-14.746c0-1.976,1.599-3.576,3.576-3.576
						s3.576,1.599,3.576,3.576v14.746C920.388,580.981,918.789,582.58,916.813,582.58z"/>
					<path fill="#FFFFFF" d="M916.813,647.078c-1.976,0-3.576-1.599-3.576-3.576v-14.746c0-1.976,1.599-3.576,3.576-3.576
						s3.576,1.599,3.576,3.576v14.746C920.388,645.478,918.789,647.078,916.813,647.078z"/>
				</g>
			</g>
			<g>
				<g>
					<path fill="#FFFFFF" d="M865.116,296.079c-0.915,0-1.83-0.349-2.528-1.048l-11.582-11.582c-1.397-1.397-1.397-3.659,0-5.056
						s3.659-1.397,5.056,0l11.582,11.582c1.397,1.393,1.397,3.659,0,5.056C866.946,295.73,866.031,296.079,865.116,296.079z"/>
					<path fill="#FFFFFF" d="M819.387,250.35c-0.915,0-1.83-0.349-2.528-1.048l-11.582-11.579c-1.397-1.393-1.397-3.659,0-5.056
						s3.659-1.397,5.056,0l11.582,11.579c1.397,1.397,1.397,3.659,0,5.056C821.217,250.001,820.302,250.35,819.387,250.35z"/>
				</g>
				<g>
					<path fill="#FFFFFF" d="M876.985,267.425h-16.38c-1.976,0-3.576-1.599-3.576-3.576s1.599-3.576,3.576-3.576h16.38
						c1.976,0,3.576,1.599,3.576,3.576S878.961,267.425,876.985,267.425z"/>
					<path fill="#FFFFFF" d="M812.316,267.425h-16.38c-1.976,0-3.576-1.599-3.576-3.576s1.599-3.576,3.576-3.576h16.38
						c1.976,0,3.576,1.599,3.576,3.576S814.293,267.425,812.316,267.425z"/>
				</g>
				<g>
					<path fill="#FFFFFF" d="M853.534,250.35c-0.915,0-1.83-0.349-2.528-1.048c-1.397-1.397-1.397-3.659,0-5.056l11.582-11.579
						c1.397-1.397,3.659-1.397,5.056,0s1.397,3.663,0,5.056l-11.582,11.579C855.364,250.001,854.449,250.35,853.534,250.35z"/>
					<path fill="#FFFFFF" d="M807.805,296.079c-0.915,0-1.83-0.349-2.528-1.048c-1.397-1.397-1.397-3.663,0-5.056l11.582-11.582
						c1.397-1.397,3.659-1.397,5.056,0s1.397,3.659,0,5.056l-11.582,11.582C809.635,295.73,808.72,296.079,807.805,296.079z"/>
				</g>
				<g>
					<path fill="#FFFFFF" d="M836.459,243.279c-1.976,0-3.576-1.599-3.576-3.576v-16.377c0-1.976,1.599-3.576,3.576-3.576
						s3.576,1.599,3.576,3.576v16.377C840.035,241.68,838.435,243.279,836.459,243.279z"/>
					<path fill="#FFFFFF" d="M836.459,307.948c-1.976,0-3.576-1.599-3.576-3.576v-16.377c0-1.976,1.599-3.576,3.576-3.576
						s3.576,1.599,3.576,3.576v16.377C840.035,306.349,838.435,307.948,836.459,307.948z"/>
				</g>
			</g>
		</g>
		<path fill="#50BAC9" d="M248.869,553.117l-10.5-87.227c-1.32-10.966-11.008-18.969-22.026-18.196L69.273,458.017
			c-11.304,0.793-19.874,10.519-19.24,21.833l4.842,86.328c0.643,11.461,10.479,20.216,21.937,19.526l75.485-4.547
			c1.641-0.099,3.202,0.72,4.054,2.127l14.099,23.282c1.924,3.178,6.671,2.716,7.947-0.773l8.941-24.445
			c0.607-1.66,2.144-2.8,3.909-2.9l38.219-2.163C241.407,575.608,250.299,564.992,248.869,553.117z"/>
		<path fill="#4CEAFC" d="M944.548,966.182c-1.983,0-4.005-0.049-6.062-0.147c-17.386-0.824-30.958-3.764-39.286-6.09
			c-1.236-0.346-1.959-1.627-1.613-2.863c0.346-1.233,1.627-1.966,2.863-1.613c8.094,2.259,21.304,5.119,38.253,5.922
			c15.395,0.733,28.472-1.358,38.923-6.198c1.166-0.545,2.542-0.038,3.087,1.131c0.538,1.166,0.031,2.549-1.131,3.087
			C969.861,963.908,958.097,966.182,944.548,966.182z"/>
		<path fill="#4CEAFC" d="M843.278,975.222c-2.263,0-4.48-0.751-6.299-2.161c-2.367-1.837-3.81-4.609-3.96-7.602l-3.928-79.404
			c-0.255-5.095,3.188-9.543,8.188-10.57l29.597-6.086c4.25-0.859,8.394,0.988,10.629,4.431l5.943-5.091
			c6.533-5.594,10.343-13.782,10.451-22.456c0.297-22.854-3.443-38.84-10.528-45.017c-0.967-0.845-1.068-2.312-0.227-3.279
			c0.849-0.967,2.315-1.068,3.279-0.227c10.423,9.086,12.347,31.433,12.127,48.582c-0.129,10.011-4.532,19.46-12.078,25.927
			l-8.325,7.13c-0.615,0.524-1.456,0.691-2.231,0.443c-0.772-0.251-1.355-0.883-1.543-1.673c-0.705-2.982-3.621-4.836-6.561-4.218
			l-29.597,6.086c-2.734,0.562-4.62,2.996-4.48,5.786l3.928,79.404c0.08,1.638,0.87,3.153,2.165,4.162
			c1.295,1.006,2.958,1.4,4.574,1.068l36.311-7.396c1.275-0.248,2.486,0.559,2.741,1.812c0.258,1.257-0.555,2.486-1.812,2.741
			l-36.311,7.396C844.647,975.152,843.959,975.222,843.278,975.222z"/>
		<g>
			<g>
				<path fill="#FFFFFF" d="M885.893,864.52l8.601-7.366c7.076-6.06,11.147-14.876,11.266-24.192
					c0.197-15.389-1.35-38.102-11.327-46.799c-15.692-13.679,24.843-38.448,39.736-11.165s10.386,58.272,10.386,58.272
					s45.031-15.68,53.374-9.628c8.343,6.052,8.343,19.684,4.768,33.726c0,0,17.878,20.001,7.151,40.263
					c0,0,4.768,13.111-4.768,28.605c-9.535,15.494-29.277,25.605-60.526,24.126s-50.122-9.823-50.122-9.823L885.893,864.52z"/>
				<path fill="#50BAC9" d="M897.004,943.131l-10.649-78.094c-0.621-4.557-4.969-7.637-9.474-6.71l-29.597,6.085
					c-3.84,0.789-6.531,4.261-6.337,8.177l3.931,79.404c0.241,4.861,4.754,8.365,9.523,7.394l36.314-7.395
					C894.819,951.156,897.569,947.28,897.004,943.131z"/>
				<path fill="#D3B9B9" d="M972.312,877.929c-1.903,0-3.485-1.502-3.569-3.419c-0.087-1.976,1.442-3.642,3.419-3.729
					c7.459-0.325,14.666-3.632,19.778-9.072c1.348-1.446,3.614-1.512,5.053-0.157c1.439,1.351,1.512,3.614,0.157,5.053
					c-6.376,6.788-15.371,10.915-24.677,11.321C972.417,877.929,972.364,877.929,972.312,877.929z"/>
				<path fill="#D3B9B9" d="M983.842,914.492c-1.048,0-2.095-0.077-3.132-0.237c-1.952-0.297-3.293-2.12-2.996-4.071
					c0.297-1.952,2.116-3.3,4.071-2.996c4.979,0.744,10.301-1.257,13.534-5.126c1.268-1.516,3.523-1.718,5.035-0.454
					c1.515,1.268,1.718,3.52,0.454,5.035C996.678,911.59,990.267,914.492,983.842,914.492z"/>
			</g>
			<circle fill="#FFFFFF" cx="865.035" cy="887.501" r="8.939"/>
		</g>
	</g>
	<g>
		<path fill="#FC523A" d="M933.674,1093.654c0,0-50.953-82.239-178.781-119.784c-127.829-37.544-365.608,8.066-420.136,119.784
			H933.674z"/>
		<path fill="#F04230" d="M702.037,1040.02c22.68-16.2,24.793-44.148,22.332-73.195c-54.429-9.598-121.642-7.281-185.391,6.005
			c3.99,20.672,10.192,40.871,23.609,60.039C594.768,1079.351,666.281,1072.2,702.037,1040.02z"/>
		<path fill="#FC523A" d="M812.286,524.533c0,0-152.059-18.145-271.781-20.09c7.721,59.258,8.846,119.801,13.152,179.57
			c108.863,4.915,244.035,6.292,253.028-16.455C821.881,629.12,812.286,524.533,812.286,524.533z"/>
		<path fill="#F04230" d="M398.844,528.698c-9.129,52.422,17.143,146.852,17.143,146.852s62.578,5.073,137.67,8.463
			c-4.306-59.769-5.431-120.312-13.152-179.57C465.015,503.215,402.374,508.426,398.844,528.698z"/>
		<path fill="#50BAC9" d="M790.976,621.671c0,0,23.693-2.682,28.163,8.045c4.47,10.727,4.47,52.741,4.47,52.741l-32.632,4.659
			V621.671z"/>
		<path fill="#FCAC6F" d="M772.656,687.116c0,0,44.695-29.689,75.982,6.068c31.287,35.756-6.257,127.829-69.725,102.799
			C715.446,770.953,772.656,687.116,772.656,687.116z"/>
		<path fill="#FCAC6F" d="M702.931,916.867c0,0,13.409,76.074-9.833,105.926c-23.242,29.852-81.32,39.481-110.675,5.963
			c-27.313-31.186-19.835-114.778-19.835-114.778L702.931,916.867z"/>
		<path fill="#50BAC9" d="M431.327,642.231c0,0-23.833-0.742-27.414,10.313c-3.581,11.055-0.158,52.929-0.158,52.929l32.903,1.985
			L431.327,642.231z"/>
		<path fill="#FCAC6F" d="M453.412,694.267c0,0-44.695-29.689-75.982,6.068s6.257,127.829,69.725,102.799
			S453.412,694.267,453.412,694.267z"/>
		<path fill="#FC935A" d="M427.786,786.614c-1.983,0-3.956-0.269-5.852-0.817c-9.197-2.661-16.579-11.177-18.81-21.702
			c-1.365-6.446-0.66-12.759,1.994-17.78c3.356-6.355,9.85-10.315,16.447-10.311c0.094,0.003,0.192,0.003,0.286,0.007
			c-5.311-5.035-12.113-8.496-19.348-9.365c-2.94-0.353-5.039-3.024-4.686-5.964c0.356-2.94,3.02-5.084,5.964-4.686
			c19.38,2.326,35.805,17.979,39.056,37.223c0.43,2.532-0.995,5.011-3.398,5.915c-2.392,0.89-5.105-0.017-6.453-2.207
			c-4.26-6.907-7.937-10.147-11.568-10.196c-2.689-0.021-5.367,1.851-6.816,4.592c-1.481,2.807-1.83,6.554-0.981,10.549
			c1.397,6.6,5.933,12.071,11.293,13.618c2.734,0.796,5.982,0.367,8.67-1.145c2.161-1.219,3.649-2.989,4.187-4.983
			c0.768-2.863,3.726-4.557,6.572-3.785c2.86,0.768,4.557,3.712,3.785,6.572c-1.292,4.798-4.585,8.897-9.278,11.544
			C435.423,785.623,431.585,786.614,427.786,786.614z"/>
		<path fill="#FC935A" d="M800.965,777.354c-2.738,0-5.5-0.503-8.129-1.508c-5.028-1.927-8.89-5.5-10.874-10.056
			c-1.18-2.717,0.066-5.877,2.78-7.06c2.731-1.17,5.88,0.07,7.06,2.78c0.824,1.9,2.556,3.432,4.875,4.319
			c2.87,1.107,6.139,1.055,8.744-0.136c5.07-2.319,8.757-8.398,9.177-15.127c0.251-4.078-0.646-7.734-2.521-10.29
			c-1.833-2.5-4.906-3.935-7.417-3.548c-3.59,0.583-6.746,4.326-9.941,11.781c-1.013,2.364-3.583,3.68-6.062,3.129
			c-2.511-0.541-4.284-2.783-4.232-5.349c0.398-19.516,14.351-37.408,33.179-42.548c2.849-0.779,5.803,0.904,6.586,3.764
			c0.779,2.856-0.904,5.803-3.764,6.586c-7.026,1.917-13.248,6.338-17.763,12.096c0.091-0.014,0.185-0.031,0.279-0.045
			c6.526-1.062,13.527,1.99,17.78,7.787c3.359,4.578,4.986,10.72,4.581,17.299c-0.667,10.737-6.722,20.246-15.427,24.223
			C807.1,776.715,804.048,777.354,800.965,777.354z"/>
		<path fill="#FCD290" d="M782.489,582.339c0,0,12.515,199.341,7.151,254.764c-5.363,55.422-84.027,119.784-166.267,109.057
			c-82.239-10.727-153.752-38.438-170.736-131.404c-16.984-92.966-21.454-249.4-21.454-249.4s0-123.359,125.147-136.768
			C674.74,415.9,771.762,475.07,782.489,582.339z"/>
		<path fill="#FC523A" d="M414.953,612.848c17.194-7.235,84.974-36.985,119.355-70.182c0.163-0.157,0.412,0.004,0.35,0.221
			l-11.315,39.98c-0.856,3.023,1.885,5.833,4.921,5.021c16.205-4.333,57.673-18.509,83.306-54.945
			c0.152-0.216,0.471-0.06,0.372,0.185c-2.073,5.126-8.246,20.386-12.114,29.947c-1.311,3.242,1.809,6.5,5.105,5.332
			c15.106-5.355,47.558-18.635,71.463-40.917c0.167-0.156,0.422,0.006,0.351,0.223l-12.706,38.866
			c-1.009,3.086,1.821,6.039,4.946,5.158c12.452-3.508,37.874-13.559,49.856-39.076c0.074-0.158,0.285-0.183,0.369-0.029
			c2.584,4.728,31.148,55.567,69.829,65.344c1.247,0.315,2.56-0.002,3.55-0.823c9.967-8.262,62.076-57.276,42.639-164.991
			c-17.065-94.571-107.094-134.843-143.211-147.361c-4.019-1.393-7.173,3.567-4.229,6.637l30.453,31.749
			c0.169,0.176-0.027,0.456-0.251,0.358l-67.362-29.741c-3.649-1.611-7.183,2.469-5.067,5.851l22.062,35.258
			c0.121,0.193-0.093,0.422-0.294,0.314l-25.591-13.688c-3.559-1.904-7.407,2.003-5.45,5.533l16.419,29.608
			c1.643,2.963-0.859,6.496-4.204,5.956c-27.063-4.365-114.802-12.578-192.293,46.285c-83.251,63.239-53.727,178.089-46.646,201.404
			C410.278,612.669,412.694,613.798,414.953,612.848z"/>
		<path fill="#634156" d="M802.687,760.54l-364.553,23.414c-2.838,0.182-5.287-1.971-5.469-4.809l-9.454-147.193
			c-0.182-2.838,1.971-5.287,4.809-5.469l364.553-23.414c2.838-0.182,5.287,1.971,5.469,4.809l9.454,147.193
			C807.678,757.909,805.525,760.357,802.687,760.54z"/>
		<path fill="#5A384D" d="M450.172,765.263c-0.196,0-0.492-0.159-0.515-0.501l-7.754-120.719c-0.016-0.253,0.248-0.553,0.499-0.569
			l338.082-21.714c0.248,0,0.545,0.161,0.569,0.501l7.752,120.718c0.014,0.253-0.248,0.553-0.499,0.569L450.172,765.263z"/>
		<path fill="#FCAC6F" d="M628.287,876.305c-14.138,0-28.273-2.437-40.509-7.34c-2.748-1.103-4.082-4.225-2.982-6.977
			c1.103-2.752,4.229-4.082,6.977-2.982c22.69,9.1,53.9,8.625,75.909-1.145c2.699-1.208,5.877,0.017,7.078,2.727
			c1.201,2.706-0.017,5.877-2.727,7.078C659.085,873.414,643.682,876.305,628.287,876.305z"/>
		<g>
			<path fill="#634156" d="M627.543,859.831c-21,0-42-5.479-60.182-16.495c-2.535-1.536-3.342-4.836-1.809-7.368
				c1.536-2.539,4.836-3.335,7.368-1.809c33.937,20.567,80.644,19.481,113.582-2.622c2.455-1.652,5.789-1.002,7.441,1.463
				c1.652,2.458,0.995,5.793-1.463,7.441C673.268,853.34,650.404,859.831,627.543,859.831z"/>
			<path fill="#634156" d="M551.767,853.067c-2.196,0-4.26-1.358-5.046-3.544c-1.006-2.79,0.44-5.863,3.226-6.865
				c10.056-3.621,18-12.714,20.246-23.165c0.622-2.891,3.443-4.742,6.373-4.117c2.895,0.622,4.738,3.474,4.117,6.373
				c-3.006,13.985-13.643,26.154-27.097,31C552.986,852.966,552.371,853.067,551.767,853.067z"/>
		</g>
		<path fill="#F04230" d="M437.757,529.06l58.606,2.791c2.924,0.139,4.36-3.509,2.125-5.4l-32.021-27.094
			c-2.301-1.947-0.704-5.698,2.295-5.387l83.824,8.671c3.01,0.311,4.602-3.465,2.277-5.402l-46.76-38.967
			c-2.479-2.066-0.493-6.065,2.651-5.34l116.51,26.887c3,0.692,5.033-2.976,2.856-5.153l-67.196-67.196
			c-2.172-2.172-0.154-5.832,2.842-5.156l81.003,18.291c3.41,0.77,5.258-3.847,2.245-5.62
			c-22.247-13.093-60.521-36.245-81.275-52.393c-34.236,5.119-74.07,17.875-111.527,46.328
			c-83.277,63.259-53.708,178.162-46.64,201.425c0.709,2.332,3.114,3.455,5.36,2.51c10.303-4.335,38.864-16.799,67.488-33.25
			c-14.769-11.304-37.129-34.749-47.066-45.41C433.482,532.186,435.012,528.929,437.757,529.06z"/>
		<path fill="#50BAC9" d="M756.555,623.297l-0.198,1.29c-0.844,5.498-5.397,9.67-10.948,10.032L473.764,652.3
			c-6.136,0.399-11.56-3.96-12.489-10.038l0,0L756.555,623.297z"/>
	</g>
</g>
</svg>
